<svg width="182" height="370" viewBox="0 0 182 370" fill="none" xmlns="http://www.w3.org/2000/svg">
<g clip-path="url(#clip0_2150_3745)">
<rect x="0.0136719" y="0.344238" width="56.61" height="56.61" rx="10.1255" fill="#96D35F"/>
<mask id="mask0_2150_3745" style="mask-type:luminance" maskUnits="userSpaceOnUse" x="0" y="0" width="57" height="57">
<path d="M0.081543 0.400879H56.5557V16.9593V56.8977H15.972H0.081543V0.400879Z" fill="white"/>
</mask>
<g mask="url(#mask0_2150_3745)">
<path d="M60.9428 -17.8223H-26.865V64.1774H60.9428V-17.8223Z" fill="#96D35F"/>
<path d="M11.5112 82.2646C11.5112 72.1427 13.6964 62.5303 17.6251 53.8803C21.067 46.3003 17.9478 40.1071 23.756 34.2933C27.3677 30.6815 24.7806 15.8327 29.117 13.0928C32.2701 11.1001 50.0966 20.3445 53.5725 18.8783C61.7809 15.4138 70.8046 13.5004 80.2698 13.5004C118.244 13.5004 149.028 44.2849 149.028 82.2589C149.028 120.233 118.244 151.018 80.2698 151.018C42.2958 151.018 11.5112 120.244 11.5112 82.2646Z" fill="#4E7A27"/>
</g>
</g>
<g clip-path="url(#clip1_2150_3745)">
<rect x="118.687" y="0.313477" width="56.6717" height="56.6717" rx="6.80061" transform="rotate(90 118.687 0.313477)" fill="#96D35F"/>
<path d="M118.618 56.9287L118.618 1.78147C118.448 1.78147 118.278 1.77013 118.108 1.77013C108.78 1.66246 111.251 9.56816 105.255 12.4301C99.6955 15.0823 95.5981 4.60938 90.3503 7.29562C84.4225 10.3332 88.6785 18.9587 85.1139 20.9195C79.084 24.2291 74.6579 12.7474 62.4622 14.7083C62.3318 14.7309 62.2072 14.7536 62.0825 14.7763L62.0825 56.9287L118.618 56.9287Z" fill="#4E7A27"/>
</g>
<g clip-path="url(#clip2_2150_3745)">
<rect x="124.078" width="57.2988" height="57.2988" rx="6.87585" fill="#96D35F"/>
<path d="M124.147 57.2416H156.779L124.147 24.0942V57.2416Z" fill="#4E7A27"/>
</g>
<g clip-path="url(#clip3_2150_3745)">
<rect x="0.388916" y="63.0913" width="56.61" height="56.61" rx="10.1255" fill="#96D35F"/>
<path d="M56.9988 62.9668H13.7487C13.5223 63.3801 13.2959 63.7933 13.0751 64.2122C9.18032 71.5545 20.9269 83.1766 18.7927 91.402C16.5283 100.126 0.496338 105.515 0.496338 114.952C0.496338 116.588 0.541626 118.213 0.609558 119.826H56.9932V62.9668H56.9988Z" fill="#4E7A27"/>
</g>
<g clip-path="url(#clip4_2150_3745)">
<rect x="62.3904" y="63.0913" width="56.61" height="56.61" rx="10.1255" fill="#96D35F"/>
<path d="M118.927 63.1475H62.4585V119.644H118.927V63.1475Z" fill="#4E7A27"/>
</g>
<g clip-path="url(#clip5_2150_3745)">
<rect width="56.61" height="56.61" rx="10.1255" transform="matrix(-1 0 0 1 181.002 63.0913)" fill="#96D35F"/>
<path d="M124.392 62.9668H167.642C167.868 63.3801 168.095 63.7933 168.316 64.2122C172.21 71.5545 160.464 83.1766 162.598 91.402C164.862 100.126 180.894 105.515 180.894 114.952C180.894 116.588 180.849 118.213 180.781 119.826H124.397V62.9668H124.392Z" fill="#4E7A27"/>
</g>
<g clip-path="url(#clip6_2150_3745)">
<rect x="56.999" y="125.494" width="56.61" height="56.61" rx="10.1255" transform="rotate(90 56.999 125.494)" fill="#96D35F"/>
<path d="M9.65575 153.623C9.65574 171.46 24.1152 185.919 41.9518 185.919C59.7884 185.919 74.2478 171.46 74.2478 153.623C74.2478 135.787 59.7884 121.327 41.9518 121.327C24.1152 121.327 9.65575 135.787 9.65575 153.623Z" fill="#4E7A27"/>
</g>
<g clip-path="url(#clip7_2150_3745)">
<rect x="62.3904" y="125.494" width="56.61" height="56.61" rx="10.1255" fill="#96D35F"/>
<path d="M118.927 125.55H62.4585V182.047H118.927V125.55Z" fill="#4E7A27"/>
</g>
<g clip-path="url(#clip8_2150_3745)">
<rect x="124.392" y="125.494" width="56.61" height="56.61" rx="10.1255" fill="#96D35F"/>
<path d="M180.945 125.562H125.875C125.813 127.073 125.773 128.59 125.773 130.119C125.773 148.924 130.562 166.609 138.98 182.03H180.945V125.562Z" fill="#4E7A27"/>
</g>
<g clip-path="url(#clip9_2150_3745)">
<rect x="1.24609" y="187.896" width="55.7529" height="56.61" rx="6.69035" fill="#96D35F"/>
<path d="M56.9321 206.43V187.953H40.3623C45.447 194.508 50.9888 200.684 56.9321 206.43Z" fill="#4E7A27"/>
</g>
<g clip-path="url(#clip10_2150_3745)">
<rect x="62.3904" y="187.896" width="56.61" height="56.61" rx="10.1255" fill="#96D35F"/>
<path d="M63.6755 187.969L77.1827 244.438H104.208L117.715 187.969H63.6755Z" fill="#4E7A27"/>
</g>
<g clip-path="url(#clip11_2150_3745)">
<rect width="55.7529" height="56.61" rx="6.69035" transform="matrix(-1 0 0 1 180.145 187.896)" fill="#96D35F"/>
<path d="M124.459 206.43V187.953H141.028C135.944 194.508 130.402 200.684 124.459 206.43Z" fill="#4E7A27"/>
</g>
<g clip-path="url(#clip12_2150_3745)">
<rect x="62.3904" y="250.299" width="56.61" height="56.61" rx="10.1255" fill="#96D35F"/>
<path d="M104.203 250.373H77.1826V306.842H104.203V250.373Z" fill="#4E7A27"/>
</g>
<g clip-path="url(#clip13_2150_3745)">
<rect x="0.0446777" y="313.045" width="56.61" height="56.61" rx="10.1255" fill="#96D35F"/>
<path d="M0.152344 341.35V369.48L56.6492 369.582V313.113L0.152344 341.35Z" fill="#4E7A27"/>
</g>
<g clip-path="url(#clip14_2150_3745)">
<rect x="62.0461" y="313.045" width="56.61" height="56.61" rx="10.1255" fill="#96D35F"/>
<path d="M62.1028 321.718V369.588H118.6V315.123C115.854 314.993 113.091 314.919 110.312 314.919C93.5836 314.925 77.4101 317.297 62.1028 321.718Z" fill="#4E7A27"/>
</g>
<g clip-path="url(#clip15_2150_3745)">
<rect width="57.2988" height="57.2988" rx="6.87585" transform="matrix(4.37114e-08 1 1 -4.37114e-08 124.047 312.701)" fill="#96D35F"/>
<path d="M181.289 350.994L181.289 369.931L124.104 369.931L124.104 321.072C145.11 327.49 164.443 337.729 181.289 350.994Z" fill="#4E7A27"/>
</g>
<defs>
<clipPath id="clip0_2150_3745">
<rect x="0.0136719" y="0.344238" width="56.61" height="56.61" rx="10.1255" fill="white"/>
</clipPath>
<clipPath id="clip1_2150_3745">
<rect x="118.687" y="0.313477" width="56.6717" height="56.6717" rx="6.80061" transform="rotate(90 118.687 0.313477)" fill="white"/>
</clipPath>
<clipPath id="clip2_2150_3745">
<rect x="124.078" width="57.2988" height="57.2988" rx="6.87585" fill="white"/>
</clipPath>
<clipPath id="clip3_2150_3745">
<rect x="0.388916" y="63.0913" width="56.61" height="56.61" rx="10.1255" fill="white"/>
</clipPath>
<clipPath id="clip4_2150_3745">
<rect x="62.3904" y="63.0913" width="56.61" height="56.61" rx="10.1255" fill="white"/>
</clipPath>
<clipPath id="clip5_2150_3745">
<rect width="56.61" height="56.61" rx="10.1255" transform="matrix(-1 0 0 1 181.002 63.0913)" fill="white"/>
</clipPath>
<clipPath id="clip6_2150_3745">
<rect x="56.999" y="125.494" width="56.61" height="56.61" rx="10.1255" transform="rotate(90 56.999 125.494)" fill="white"/>
</clipPath>
<clipPath id="clip7_2150_3745">
<rect x="62.3904" y="125.494" width="56.61" height="56.61" rx="10.1255" fill="white"/>
</clipPath>
<clipPath id="clip8_2150_3745">
<rect x="124.392" y="125.494" width="56.61" height="56.61" rx="10.1255" fill="white"/>
</clipPath>
<clipPath id="clip9_2150_3745">
<rect x="1.24609" y="187.896" width="55.7529" height="56.61" rx="6.69035" fill="white"/>
</clipPath>
<clipPath id="clip10_2150_3745">
<rect x="62.3904" y="187.896" width="56.61" height="56.61" rx="10.1255" fill="white"/>
</clipPath>
<clipPath id="clip11_2150_3745">
<rect width="55.7529" height="56.61" rx="6.69035" transform="matrix(-1 0 0 1 180.145 187.896)" fill="white"/>
</clipPath>
<clipPath id="clip12_2150_3745">
<rect x="62.3904" y="250.299" width="56.61" height="56.61" rx="10.1255" fill="white"/>
</clipPath>
<clipPath id="clip13_2150_3745">
<rect x="0.0446777" y="313.045" width="56.61" height="56.61" rx="10.1255" fill="white"/>
</clipPath>
<clipPath id="clip14_2150_3745">
<rect x="62.0461" y="313.045" width="56.61" height="56.61" rx="10.1255" fill="white"/>
</clipPath>
<clipPath id="clip15_2150_3745">
<rect width="57.2988" height="57.2988" rx="6.87585" transform="matrix(4.37114e-08 1 1 -4.37114e-08 124.047 312.701)" fill="white"/>
</clipPath>
</defs>
</svg>
