<svg width="28" height="28" viewBox="0 0 28 28" fill="none" xmlns="http://www.w3.org/2000/svg">
<path d="M25.1172 0C26.3782 0 27.4003 1.02221 27.4004 2.2832V9.89453C27.4004 11.1556 26.3783 12.1777 25.1172 12.1777H17.5059C16.2449 12.1776 15.2227 11.1556 15.2227 9.89453V2.2832C15.2228 1.02227 16.2449 0.000103842 17.5059 0H25.1172Z" fill="black"/>
<path d="M25.3506 15.2344C26.5021 15.3512 27.4003 16.3236 27.4004 17.5059V25.1172L27.3887 25.3506C27.2796 26.4254 26.4254 27.2796 25.3506 27.3887L25.1172 27.4004H17.5059L17.2725 27.3887C16.1978 27.2795 15.3434 26.4253 15.2344 25.3506L15.2227 25.1172V17.5059C15.2228 16.3237 16.1212 15.3514 17.2725 15.2344L17.5059 15.2227H25.1172L25.3506 15.2344ZM16.7451 25.1172C16.7451 25.5375 17.0856 25.8788 17.5059 25.8789H22.627L16.7451 18.2676V25.1172Z" fill="black"/>
<path d="M10.1279 0.0117188C11.2794 0.128529 12.1776 1.10094 12.1777 2.2832V9.89453L12.166 10.1279C12.057 11.2028 11.2028 12.057 10.1279 12.166L9.89453 12.1777H2.2832L2.0498 12.166C0.975139 12.0568 0.120743 11.2027 0.0117188 10.1279L0 9.89453V2.2832C9.77214e-05 1.10106 0.898508 0.1287 2.0498 0.0117188L2.2832 0H9.89453L10.1279 0.0117188ZM2.2832 1.52246C1.99705 1.52253 1.75 1.6816 1.62012 1.91504L3.80566 10.6562H9.89453C10.1484 10.6562 10.3713 10.5301 10.5098 10.3389L8.08691 7.23047L3.63867 1.52246H2.2832Z" fill="black"/>
<path d="M10.1279 15.2344C11.2794 15.3512 12.1776 16.3236 12.1777 17.5059V25.1172L12.166 25.3506C12.057 26.4254 11.2028 27.2796 10.1279 27.3887L9.89453 27.4004H2.2832L2.0498 27.3887C0.975139 27.2795 0.120743 26.4253 0.0117188 25.3506L0 25.1172V17.5059C9.77214e-05 16.3237 0.898508 15.3514 2.0498 15.2344L2.2832 15.2227H9.89453L10.1279 15.2344ZM7.61133 25.8789H9.89453C10.3149 25.8789 10.6562 25.5375 10.6562 25.1172V17.5059C10.6561 17.0856 10.3148 16.7451 9.89453 16.7451H5.32812L7.61133 25.8789Z" fill="black"/>
</svg>
