<svg width="384" height="23" viewBox="0 0 384 23" fill="none" xmlns="http://www.w3.org/2000/svg">
<g filter="url(#filter0_d_2203_4084)">
<rect x="7" y="2.19995" width="391" height="8" rx="4" fill="black"/>
</g>
<path d="M92.9627 10.5155C92.7229 9.28093 93.6684 8.13398 94.926 8.13399L101.074 8.13402C102.332 8.13403 103.277 9.28097 103.037 10.5155L101.315 19.3816C101.132 20.3215 100.309 21.0001 99.3512 21.0001H96.6488C95.6913 21.0001 94.8682 20.3215 94.6855 19.3816L92.9627 10.5155Z" fill="black"/>
<path d="M271.802 9.88803C271.558 8.65164 272.504 7.5 273.764 7.5L280.236 7.5C281.496 7.5 282.442 8.65163 282.198 9.88802L280.319 19.388C280.134 20.3249 279.312 21 278.357 21H275.643C274.688 21 273.867 20.3249 273.681 19.388L271.802 9.88803Z" fill="black"/>
<defs>
<filter id="filter0_d_2203_4084" x="0" y="0.199951" width="405" height="22" filterUnits="userSpaceOnUse" color-interpolation-filters="sRGB">
<feFlood flood-opacity="0" result="BackgroundImageFix"/>
<feColorMatrix in="SourceAlpha" type="matrix" values="0 0 0 0 0 0 0 0 0 0 0 0 0 0 0 0 0 0 127 0" result="hardAlpha"/>
<feOffset dy="5"/>
<feGaussianBlur stdDeviation="3.5"/>
<feComposite in2="hardAlpha" operator="out"/>
<feColorMatrix type="matrix" values="0 0 0 0 0 0 0 0 0 0 0 0 0 0 0 0 0 0 0.29 0"/>
<feBlend mode="normal" in2="BackgroundImageFix" result="effect1_dropShadow_2203_4084"/>
<feBlend mode="normal" in="SourceGraphic" in2="effect1_dropShadow_2203_4084" result="shape"/>
</filter>
</defs>
</svg>
