<svg width="150" height="460" viewBox="0 0 150 460" fill="none" xmlns="http://www.w3.org/2000/svg">
<g clip-path="url(#clip0_2161_4695)">
<rect x="70.9189" y="460" width="70.8302" height="70.8302" rx="12" transform="rotate(-180 70.9189 460)" fill="#D7B98F"/>
<path d="M0.17379 389.241L0.173787 424.741C15.8343 446.075 41.0853 459.929 69.5732 459.929C69.9982 459.929 70.409 459.922 70.8269 459.915L70.8269 389.241L0.17379 389.241Z" fill="#895000"/>
</g>
<g clip-path="url(#clip1_2161_4695)">
<rect width="70.8302" height="70.8302" rx="12" transform="matrix(1 8.74228e-08 8.74227e-08 -1 78.0027 460)" fill="#D7B98F"/>
<path d="M148.748 389.241L148.748 424.741C133.087 446.075 107.836 459.929 79.3484 459.929C78.9234 459.929 78.5126 459.922 78.0947 459.915L78.0947 389.241L148.748 389.241Z" fill="#895000"/>
</g>
<g clip-path="url(#clip2_2161_4695)">
<rect x="71.6287" width="70.1219" height="71.1999" rx="11.88" transform="rotate(90 71.6287 0)" fill="#D7B98F"/>
<path d="M48.3172 70.038L71.5569 70.038L71.5569 49.1978C63.3119 55.5929 55.544 62.563 48.3172 70.038Z" fill="#895000"/>
</g>
<g clip-path="url(#clip3_2161_4695)">
<rect width="69.1219" height="71.1999" rx="11.88" transform="matrix(4.37114e-08 1 1 -4.37114e-08 78.7109 0)" fill="#D7B98F"/>
<path d="M102.022 69.0391L78.7827 69.0391L78.7827 48.4961C87.0277 54.8 94.7956 61.6707 102.022 69.0391Z" fill="#895000"/>
</g>
<g clip-path="url(#clip4_2161_4695)">
<rect width="70" height="71" rx="17.8864" transform="matrix(-1 0 0 1 148 311)" fill="#D7B98F"/>
<path d="M77.9999 310.844H131.48C131.76 311.362 132.04 311.88 132.313 312.406C137.129 321.614 122.604 336.191 125.243 346.507C128.043 357.448 147.867 364.207 147.867 376.043C147.867 378.095 147.811 380.133 147.727 382.156H78.0069V310.844H77.9999Z" fill="#895000"/>
</g>
<g clip-path="url(#clip5_2161_4695)">
<rect x="0.0888672" y="310.945" width="70.8302" height="70.8302" rx="17.8864" fill="#D7B98F"/>
<path d="M70.919 310.789H16.8047C16.5214 311.306 16.2381 311.823 15.9619 312.347C11.0887 321.534 25.786 336.075 23.1157 346.367C20.2825 357.282 0.223389 364.025 0.223389 375.832C0.223389 377.879 0.280053 379.912 0.365049 381.931H70.912V310.789H70.919Z" fill="#895000"/>
</g>
<g clip-path="url(#clip6_2161_4695)">
<rect x="78.0027" y="233.032" width="70.8302" height="70.8302" rx="17.8864" fill="#D7B98F"/>
<path d="M148.748 303.791V268.291C133.087 246.957 107.836 233.103 79.3484 233.103C78.9234 233.103 78.5126 233.11 78.0947 233.117V303.791H148.748Z" fill="#895000"/>
</g>
<g clip-path="url(#clip7_2161_4695)">
<rect width="70.8302" height="70.8302" rx="17.8864" transform="matrix(-1 0 0 1 70.9189 233.032)" fill="#D7B98F"/>
<path d="M0.173784 303.791V268.291C15.8343 246.957 41.0853 233.103 69.5732 233.103C69.9982 233.103 70.409 233.11 70.8269 233.117V303.791H0.173784Z" fill="#895000"/>
</g>
<g clip-path="url(#clip8_2161_4695)">
<rect x="0.0888672" y="77.2046" width="70.8302" height="70.8302" rx="12" fill="#D7B98F"/>
<path d="M70.9189 77.2046H47.5449V148.035H70.9189V77.2046Z" fill="#895000"/>
</g>
<g clip-path="url(#clip9_2161_4695)">
<rect x="0.0888672" y="155.117" width="70.8302" height="70.8302" rx="12" fill="#D7B98F"/>
<path d="M70.9189 155.117H47.5449V225.947H70.9189V155.117Z" fill="#895000"/>
</g>
<g clip-path="url(#clip10_2161_4695)">
<rect x="148.833" y="148.034" width="70.8302" height="70.8302" rx="12" transform="rotate(-180 148.833 148.034)" fill="#D7B98F"/>
<path d="M78.0027 148.034L101.377 148.034L101.377 77.2039L78.0027 77.2039L78.0027 148.034Z" fill="#895000"/>
</g>
<g clip-path="url(#clip11_2161_4695)">
<rect x="148.833" y="225.948" width="70.8302" height="70.8302" rx="12" transform="rotate(-180 148.833 225.948)" fill="#D7B98F"/>
<path d="M78.0027 225.948L101.377 225.948L101.377 155.118L78.0027 155.118L78.0027 225.948Z" fill="#895000"/>
</g>
<defs>
<clipPath id="clip0_2161_4695">
<rect x="70.9189" y="460" width="70.8302" height="70.8302" rx="12" transform="rotate(-180 70.9189 460)" fill="white"/>
</clipPath>
<clipPath id="clip1_2161_4695">
<rect width="70.8302" height="70.8302" rx="12" transform="matrix(1 8.74228e-08 8.74227e-08 -1 78.0027 460)" fill="white"/>
</clipPath>
<clipPath id="clip2_2161_4695">
<rect x="71.6287" width="70.1219" height="71.1999" rx="11.88" transform="rotate(90 71.6287 0)" fill="white"/>
</clipPath>
<clipPath id="clip3_2161_4695">
<rect width="69.1219" height="71.1999" rx="11.88" transform="matrix(4.37114e-08 1 1 -4.37114e-08 78.7109 0)" fill="white"/>
</clipPath>
<clipPath id="clip4_2161_4695">
<rect width="70" height="71" rx="17.8864" transform="matrix(-1 0 0 1 148 311)" fill="white"/>
</clipPath>
<clipPath id="clip5_2161_4695">
<rect x="0.0888672" y="310.945" width="70.8302" height="70.8302" rx="17.8864" fill="white"/>
</clipPath>
<clipPath id="clip6_2161_4695">
<rect x="78.0027" y="233.032" width="70.8302" height="70.8302" rx="17.8864" fill="white"/>
</clipPath>
<clipPath id="clip7_2161_4695">
<rect width="70.8302" height="70.8302" rx="17.8864" transform="matrix(-1 0 0 1 70.9189 233.032)" fill="white"/>
</clipPath>
<clipPath id="clip8_2161_4695">
<rect x="0.0888672" y="77.2046" width="70.8302" height="70.8302" rx="12" fill="white"/>
</clipPath>
<clipPath id="clip9_2161_4695">
<rect x="0.0888672" y="155.117" width="70.8302" height="70.8302" rx="12" fill="white"/>
</clipPath>
<clipPath id="clip10_2161_4695">
<rect x="148.833" y="148.034" width="70.8302" height="70.8302" rx="12" transform="rotate(-180 148.833 148.034)" fill="white"/>
</clipPath>
<clipPath id="clip11_2161_4695">
<rect x="148.833" y="225.948" width="70.8302" height="70.8302" rx="12" transform="rotate(-180 148.833 225.948)" fill="white"/>
</clipPath>
</defs>
</svg>
