<svg width="540" height="323" viewBox="0 0 540 323" fill="none" xmlns="http://www.w3.org/2000/svg">
<path d="M87.75 111H12C5.37258 111 0 116.373 0 123V198.8C0 205.427 5.37258 210.8 12 210.8H87.75C94.3774 210.8 99.75 205.427 99.75 198.8V123C99.75 116.373 94.3774 111 87.75 111Z" fill="#FF9500"/>
<path d="M87.75 221.8H12C5.37258 221.8 0 227.173 0 233.8V309.6C0 316.227 5.37258 321.6 12 321.6H87.75C94.3774 321.6 99.75 316.227 99.75 309.6V233.8C99.75 227.173 94.3774 221.8 87.75 221.8Z" fill="#FF9500"/>
<path d="M197.5 111H121.75C115.123 111 109.75 116.373 109.75 123V198.8C109.75 205.427 115.123 210.8 121.75 210.8H197.5C204.127 210.8 209.5 205.427 209.5 198.8V123C209.5 116.373 204.127 111 197.5 111Z" fill="#FF9500"/>
<path d="M197.5 221.8H121.75C115.123 221.8 109.75 227.173 109.75 233.8V309.6C109.75 316.227 115.123 321.6 121.75 321.6H197.5C204.127 321.6 209.5 316.227 209.5 309.6V233.8C209.5 227.173 204.127 221.8 197.5 221.8Z" fill="#FF9500"/>
<path d="M417 112H341.25C334.623 112 329.25 117.373 329.25 124V199.8C329.25 206.427 334.623 211.8 341.25 211.8H417C423.627 211.8 429 206.427 429 199.8V124C429 117.373 423.627 112 417 112Z" fill="#FF9500"/>
<path d="M526.75 112H451C444.373 112 439 117.373 439 124V199.8C439 206.427 444.373 211.8 451 211.8H526.75C533.377 211.8 538.75 206.427 538.75 199.8V124C538.75 117.373 533.377 112 526.75 112Z" fill="#FF9500"/>
<path d="M307.25 112H231.5C224.873 112 219.5 117.373 219.5 124V199.8C219.5 206.427 224.873 211.8 231.5 211.8H307.25C313.877 211.8 319.25 206.427 319.25 199.8V124C319.25 117.373 313.877 112 307.25 112Z" fill="#FF9500"/>
<path d="M417 222.8H341.25C334.623 222.8 329.25 228.173 329.25 234.8V310.6C329.25 317.227 334.623 322.6 341.25 322.6H417C423.627 322.6 429 317.227 429 310.6V234.8C429 228.173 423.627 222.8 417 222.8Z" fill="#FF9500"/>
<path d="M526.75 222.8H451C444.373 222.8 439 228.173 439 234.8V310.6C439 317.227 444.373 322.6 451 322.6H526.75C533.377 322.6 538.75 317.227 538.75 310.6V234.8C538.75 228.173 533.377 222.8 526.75 222.8Z" fill="#FF9500"/>
<path d="M307.25 222.8H231.5C224.873 222.8 219.5 228.173 219.5 234.8V310.6C219.5 317.227 224.873 322.6 231.5 322.6H307.25C313.877 322.6 319.25 317.227 319.25 310.6V234.8C319.25 228.173 313.877 222.8 307.25 222.8Z" fill="#FF9500"/>
<g clip-path="url(#clip0_2150_5194)">
<rect width="100" height="100" rx="12" fill="#FFD190"/>
<path d="M0.129883 99.9H99.8799L49.9999 0.0999756L0.129883 99.9Z" fill="#FF9500"/>
</g>
<path d="M539.74 88.87L539.74 13C539.74 6.37258 534.368 1 527.74 0.999999L451.87 0.999996C445.243 0.999996 439.87 6.37256 439.87 13L439.87 88.87C439.87 95.4974 445.243 100.87 451.87 100.87L527.74 100.87C534.368 100.87 539.74 95.4974 539.74 88.87Z" fill="#FFD190"/>
<path d="M491.904 100.87C500.25 100.87 506.001 92.5504 502.04 85.205C491.333 65.3496 475.261 48.8148 455.766 37.5426C448.427 33.2993 439.871 39.041 439.871 47.5181L439.871 88.87C439.871 95.4974 445.243 100.87 451.871 100.87L491.904 100.87Z" fill="#FF9500"/>
<path d="M220 88.87L220 13C220 6.37258 225.373 1 232 0.999999L307.87 0.999996C314.497 0.999996 319.87 6.37256 319.87 13L319.87 88.87C319.87 95.4974 314.497 100.87 307.87 100.87L232 100.87C225.373 100.87 220 95.4974 220 88.87Z" fill="#FFD190"/>
<path d="M267.836 100.87C259.491 100.87 253.739 92.5504 257.7 85.205C268.408 65.3496 284.479 48.8148 303.974 37.5426C311.313 33.2993 319.87 39.041 319.87 47.5181L319.87 88.87C319.87 95.4974 314.497 100.87 307.87 100.87L267.836 100.87Z" fill="#FF9500"/>
<rect x="110" width="100" height="100" rx="12" fill="#FFD190"/>
<path d="M183.86 0.130005H136.13V99.88H183.86V0.130005Z" fill="#FF9500"/>
<g clip-path="url(#clip1_2150_5194)">
<rect x="429.87" y="101" width="100" height="100" rx="12" transform="rotate(-180 429.87 101)" fill="#FFD190"/>
<path d="M380.18 17.3701C348.672 17.3701 323.13 42.9122 323.129 74.4201C323.129 105.928 348.672 131.47 380.179 131.47C411.687 131.47 437.229 105.928 437.229 74.4201C437.229 42.9122 411.687 17.3701 380.18 17.3701Z" fill="#FF9500"/>
</g>
<defs>
<clipPath id="clip0_2150_5194">
<rect width="100" height="100" rx="12" fill="white"/>
</clipPath>
<clipPath id="clip1_2150_5194">
<rect x="429.87" y="101" width="100" height="100" rx="12" transform="rotate(-180 429.87 101)" fill="white"/>
</clipPath>
</defs>
</svg>
