<svg width="448" height="320" viewBox="0 0 448 320" fill="none" xmlns="http://www.w3.org/2000/svg">
<g clip-path="url(#clip0_2150_4345)">
<rect width="100" height="100" rx="12" transform="matrix(4.37114e-08 -1 -1 -4.37114e-08 332 320)" fill="#96D35F"/>
<path d="M329.97 304.81C323.64 302.83 318.22 257.02 312.07 254.65C300.13 250.04 285.3 294.89 274.14 288.89C262.08 282.4 300.06 248.37 289.04 240.38C286.52 238.56 236.89 256.9 234.44 255C233.66 254.4 232.89 253.79 232.11 253.18L232.11 220.14L331.9 220.14L331.9 305.39C331.26 305.19 330.61 305.01 329.97 304.81Z" fill="#4E7A27"/>
</g>
<g clip-path="url(#clip1_2150_4345)">
<rect x="116" y="320" width="100" height="100" rx="12" transform="rotate(-90 116 320)" fill="#96D35F"/>
<path d="M118.03 304.81C124.36 302.83 129.78 257.02 135.93 254.65C147.87 250.04 162.7 294.89 173.86 288.89C185.92 282.4 147.94 248.37 158.96 240.38C161.48 238.56 211.11 256.9 213.56 255C214.34 254.4 215.11 253.79 215.89 253.18L215.89 220.14L116.1 220.14L116.1 305.39C116.74 305.19 117.39 305.01 118.03 304.81Z" fill="#4E7A27"/>
</g>
<g clip-path="url(#clip2_2150_4345)">
<rect x="116" width="100" height="100" rx="12" fill="#96D35F"/>
<mask id="mask0_2150_4345" style="mask-type:luminance" maskUnits="userSpaceOnUse" x="116" y="0" width="100" height="100">
<path d="M116.12 0.100098H215.88V29.3501V99.9001H144.19H116.12V0.100098Z" fill="white"/>
</mask>
<g mask="url(#mask0_2150_4345)">
<path d="M223.631 -32.0898H68.5205V112.76H223.631V-32.0898Z" fill="#96D35F"/>
<path d="M136.311 144.71C136.311 126.83 140.171 109.85 147.111 94.5702C153.191 81.1802 147.681 70.2402 157.941 59.9702C164.321 53.5902 159.751 27.3602 167.411 22.5202C172.981 19.0002 204.471 35.3302 210.611 32.7402C225.111 26.6202 241.051 23.2402 257.771 23.2402C324.851 23.2402 379.231 77.6202 379.231 144.7C379.231 211.78 324.851 266.16 257.771 266.16C190.691 266.16 136.311 211.8 136.311 144.71Z" fill="#4E7A27"/>
</g>
</g>
<g clip-path="url(#clip3_2150_4345)">
<rect width="100" height="100" rx="12" transform="matrix(-1 0 0 1 332 0)" fill="#96D35F"/>
<mask id="mask1_2150_4345" style="mask-type:luminance" maskUnits="userSpaceOnUse" x="232" y="0" width="100" height="100">
<path d="M331.88 0.100098H232.12V29.3501V99.9001H303.81H331.88V0.100098Z" fill="white"/>
</mask>
<g mask="url(#mask1_2150_4345)">
<path d="M224.369 -32.0898H379.479V112.76H224.369V-32.0898Z" fill="#96D35F"/>
<path d="M311.689 144.71C311.689 126.83 307.829 109.85 300.889 94.5702C294.809 81.1802 300.319 70.2402 290.059 59.9702C283.679 53.5902 288.249 27.3602 280.589 22.5202C275.019 19.0002 243.529 35.3302 237.389 32.7402C222.889 26.6202 206.949 23.2402 190.229 23.2402C123.149 23.2402 68.7694 77.6202 68.7694 144.7C68.7694 211.78 123.149 266.16 190.229 266.16C257.309 266.16 311.689 211.8 311.689 144.71Z" fill="#4E7A27"/>
</g>
</g>
<g clip-path="url(#clip4_2150_4345)">
<rect y="220" width="100" height="100" rx="12" fill="#96D35F"/>
<path d="M99.8801 252.74V220.1H70.1602C79.2802 231.68 89.2201 242.59 99.8801 252.74Z" fill="#4E7A27"/>
</g>
<g clip-path="url(#clip5_2150_4345)">
<rect width="100" height="100" rx="12" transform="matrix(-1 0 0 1 448 220)" fill="#96D35F"/>
<path d="M348.12 252.74V220.1H377.84C368.72 231.68 358.78 242.59 348.12 252.74Z" fill="#4E7A27"/>
</g>
<g clip-path="url(#clip6_2150_4345)">
<rect x="100" y="110" width="100" height="100" rx="12" transform="rotate(90 100 110)" fill="#96D35F"/>
<path d="M16.3697 159.69C16.3697 191.198 41.9119 216.74 73.4197 216.74C104.928 216.74 130.47 191.198 130.47 159.69C130.47 128.182 104.928 102.64 73.4197 102.64C41.9119 102.64 16.3697 128.182 16.3697 159.69Z" fill="#4E7A27"/>
</g>
<g clip-path="url(#clip7_2150_4345)">
<rect x="116" y="110.1" width="99.75" height="99.8" rx="12" fill="#4E7A27"/>
<path d="M165.88 186.57C180.554 186.57 192.45 174.674 192.45 160C192.45 145.326 180.554 133.43 165.88 133.43C151.205 133.43 139.31 145.326 139.31 160C139.31 174.674 151.205 186.57 165.88 186.57Z" fill="#96D35F"/>
</g>
<g clip-path="url(#clip8_2150_4345)">
<rect x="231.75" y="110.1" width="99.75" height="99.8" rx="12" fill="#4E7A27"/>
<path d="M281.63 186.57C296.304 186.57 308.2 174.674 308.2 160C308.2 145.326 296.304 133.43 281.63 133.43C266.955 133.43 255.06 145.326 255.06 160C255.06 174.674 266.955 186.57 281.63 186.57Z" fill="#96D35F"/>
</g>
<g clip-path="url(#clip9_2150_4345)">
<rect x="347.5" y="210" width="100" height="100" rx="12" transform="rotate(-90 347.5 210)" fill="#96D35F"/>
<path d="M431.13 160.31C431.13 128.802 405.588 103.26 374.08 103.26C342.572 103.26 317.03 128.802 317.03 160.31C317.03 191.818 342.572 217.36 374.08 217.36C405.588 217.36 431.13 191.818 431.13 160.31Z" fill="#4E7A27"/>
</g>
<defs>
<clipPath id="clip0_2150_4345">
<rect width="100" height="100" rx="12" transform="matrix(4.37114e-08 -1 -1 -4.37114e-08 332 320)" fill="white"/>
</clipPath>
<clipPath id="clip1_2150_4345">
<rect x="116" y="320" width="100" height="100" rx="12" transform="rotate(-90 116 320)" fill="white"/>
</clipPath>
<clipPath id="clip2_2150_4345">
<rect x="116" width="100" height="100" rx="12" fill="white"/>
</clipPath>
<clipPath id="clip3_2150_4345">
<rect width="100" height="100" rx="12" transform="matrix(-1 0 0 1 332 0)" fill="white"/>
</clipPath>
<clipPath id="clip4_2150_4345">
<rect y="220" width="100" height="100" rx="12" fill="white"/>
</clipPath>
<clipPath id="clip5_2150_4345">
<rect width="100" height="100" rx="12" transform="matrix(-1 0 0 1 448 220)" fill="white"/>
</clipPath>
<clipPath id="clip6_2150_4345">
<rect x="100" y="110" width="100" height="100" rx="12" transform="rotate(90 100 110)" fill="white"/>
</clipPath>
<clipPath id="clip7_2150_4345">
<rect x="116" y="110.1" width="99.75" height="99.8" rx="12" fill="white"/>
</clipPath>
<clipPath id="clip8_2150_4345">
<rect x="231.75" y="110.1" width="99.75" height="99.8" rx="12" fill="white"/>
</clipPath>
<clipPath id="clip9_2150_4345">
<rect x="347.5" y="210" width="100" height="100" rx="12" transform="rotate(-90 347.5 210)" fill="white"/>
</clipPath>
</defs>
</svg>
