<svg width="28" height="28" viewBox="0 0 28 28" fill="none" xmlns="http://www.w3.org/2000/svg">
<path d="M25.1172 0.299805C26.3782 0.299805 27.4003 1.32201 27.4004 2.58301V10.1943C27.4004 11.4554 26.3783 12.4775 25.1172 12.4775H17.5059C16.2449 12.4774 15.2227 11.4554 15.2227 10.1943V2.58301C15.2228 1.32208 16.2449 0.299909 17.5059 0.299805H25.1172Z" fill="black"/>
<path d="M25.3506 15.5342C26.5021 15.651 27.4003 16.6234 27.4004 17.8057V25.417L27.3887 25.6504C27.2796 26.7252 26.4254 27.5794 25.3506 27.6885L25.1172 27.7002H17.5059L17.2725 27.6885C16.1978 27.5793 15.3434 26.7251 15.2344 25.6504L15.2227 25.417V17.8057C15.2228 16.6235 16.1212 15.6512 17.2725 15.5342L17.5059 15.5225H25.1172L25.3506 15.5342ZM16.7451 25.417C16.7451 25.8373 17.0856 26.1786 17.5059 26.1787H22.627L16.7451 18.5674V25.417Z" fill="black"/>
<path d="M10.1279 0.311523C11.2794 0.428334 12.1776 1.40074 12.1777 2.58301V10.1943L12.166 10.4277C12.057 11.5026 11.2028 12.3568 10.1279 12.4658L9.89453 12.4775H2.2832L2.0498 12.4658C0.975139 12.3566 0.120743 11.5025 0.0117188 10.4277L0 10.1943V2.58301C9.77214e-05 1.40087 0.898508 0.428504 2.0498 0.311523L2.2832 0.299805H9.89453L10.1279 0.311523ZM2.2832 1.82227C1.99705 1.82234 1.75 1.98141 1.62012 2.21484L3.80566 10.9561H9.89453C10.1484 10.9561 10.3713 10.8299 10.5098 10.6387L8.08691 7.53027L3.63867 1.82227H2.2832Z" fill="black"/>
<path d="M10.1279 15.5342C11.2794 15.651 12.1776 16.6234 12.1777 17.8057V25.417L12.166 25.6504C12.057 26.7252 11.2028 27.5794 10.1279 27.6885L9.89453 27.7002H2.2832L2.0498 27.6885C0.975139 27.5793 0.120743 26.7251 0.0117188 25.6504L0 25.417V17.8057C9.77214e-05 16.6235 0.898508 15.6512 2.0498 15.5342L2.2832 15.5225H9.89453L10.1279 15.5342ZM7.61133 26.1787H9.89453C10.3149 26.1787 10.6562 25.8374 10.6562 25.417V17.8057C10.6561 17.3854 10.3148 17.0449 9.89453 17.0449H5.32812L7.61133 26.1787Z" fill="black"/>
</svg>
