<svg width="68" height="68" viewBox="0 0 68 68" fill="none" xmlns="http://www.w3.org/2000/svg">
<g clip-path="url(#clip0_2126_5239)">
<rect x="0.0297852" y="0.0666504" width="67.0564" height="67.09" rx="12" fill="#E5E5EA"/>
<path d="M19.4579 45.2507C25.7695 45.2507 30.8861 40.2846 30.8861 34.1587C30.8861 28.0327 25.7695 23.0667 19.4579 23.0667C13.1463 23.0667 8.02979 28.0327 8.02979 34.1587C8.02979 40.2846 13.1463 45.2507 19.4579 45.2507Z" fill="black"/>
<path d="M49.3144 45.2507C55.626 45.2507 60.7425 40.2846 60.7425 34.1587C60.7425 28.0327 55.626 23.0667 49.3144 23.0667C43.0028 23.0667 37.8862 28.0327 37.8862 34.1587C37.8862 40.2846 43.0028 45.2507 49.3144 45.2507Z" fill="black"/>
</g>
<defs>
<clipPath id="clip0_2126_5239">
<rect x="0.0297852" y="0.0666504" width="67.0564" height="67.09" rx="12" fill="white"/>
</clipPath>
</defs>
</svg>
