<svg width="68" height="68" viewBox="0 0 68 68" fill="none" xmlns="http://www.w3.org/2000/svg">
<g clip-path="url(#clip0_2126_5209)">
<rect x="0.775879" y="0.905029" width="67.09" height="67.09" rx="12" fill="#E5E5EA"/>
<path d="M67.7853 67.928V34.2891C67.148 33.4236 66.4972 32.5648 65.8263 31.7262C62.1296 27.0836 64.1893 5.71543 56.4941 5.01099C35.6828 3.11905 36.8971 31.6055 42.2173 42.6619C49.6576 58.1261 16.8103 51.2762 14.9251 42.105C10.8662 22.3672 31.7177 24.4671 33.1199 16.7719C34.8978 7.00356 19.3463 2.7836 17.233 2.38106C12.3153 1.45522 7.23659 0.972168 2.05053 0.972168C1.64799 0.972168 1.25887 0.978877 0.863037 0.985586V67.928H67.7853Z" fill="black"/>
</g>
<defs>
<clipPath id="clip0_2126_5209">
<rect x="0.775879" y="0.905029" width="67.09" height="67.09" rx="12" fill="white"/>
</clipPath>
</defs>
</svg>
