<svg width="68" height="68" viewBox="0 0 68 68" fill="none" xmlns="http://www.w3.org/2000/svg">
<g clip-path="url(#clip0_2126_5147)">
<rect x="-0.00366211" width="67.09" height="67.09" rx="12" fill="#E5E5EA"/>
<mask id="mask0_2126_5147" style="mask-type:luminance" maskUnits="userSpaceOnUse" x="0" y="0" width="68" height="68">
<path d="M0.0769043 0.0671387H67.0059V19.691V67.023H18.9091H0.0769043V0.0671387Z" fill="white"/>
</mask>
<g mask="url(#mask0_2126_5147)">
<path d="M72.2054 -21.5291H-31.8579V75.6508H72.2054V-21.5291Z" fill="#E5E5EA"/>
<path d="M13.6223 97.086C13.6223 85.0903 16.212 73.6985 20.868 63.4471C24.9471 54.4638 21.2504 47.1241 28.1339 40.234C32.4142 35.9536 29.3482 18.3559 34.4873 15.1088C38.2242 12.7472 59.3509 23.703 63.4702 21.9654C73.1982 17.8595 83.8924 15.5918 95.1098 15.5918C140.114 15.5918 176.597 52.0754 176.597 97.0793C176.597 142.083 140.114 178.567 95.1098 178.567C50.1059 178.567 13.6223 142.097 13.6223 97.086Z" fill="black"/>
</g>
</g>
<defs>
<clipPath id="clip0_2126_5147">
<rect x="-0.00366211" width="67.09" height="67.09" rx="12" fill="white"/>
</clipPath>
</defs>
</svg>
